<svg xmlns="http://www.w3.org/2000/svg" viewBox="0 0 128 111.42"><defs><style>.cls-1{isolation:isolate;}.cls-2{fill:#b48ead;}.cls-3{fill:#81a1c1;}.cls-4{opacity:0.17;mix-blend-mode:soft-light;}</style></defs><g class="cls-1"><g id="Layer_1" data-name="Layer 1"><path class="cls-2" d="M76.92,43.34,65.7,34.11a2.71,2.71,0,0,0-3.4,0l-41,33.74v48.31a3.55,3.55,0,0,0,3.55,3.55l24.9-.06a3.56,3.56,0,0,0,3.54-3.56V98.59A3.56,3.56,0,0,1,56.89,95H71.1a3.55,3.55,0,0,1,3.4,2.5,3.36,3.36,0,0,1,.16,1.06v17.49a3.67,3.67,0,0,0,.16,1.06,3.21,3.21,0,0,0,.12.33,3.51,3.51,0,0,0,.76,1.13,2.73,2.73,0,0,0,.25.23,2.83,2.83,0,0,0,.57.38,3.42,3.42,0,0,0,1.68.44h0l24.9.06a3.55,3.55,0,0,0,3.55-3.55V67.83Z" transform="translate(0 -8.29)"/><path class="cls-3" d="M128,59.57a2.47,2.47,0,0,1-.11.43,2.73,2.73,0,0,1-.46.81l-5.66,6.88h0a2.2,2.2,0,0,1-.2.23,2.67,2.67,0,0,1-3.55.13L81.8,38.25,108.39,10.5a2.3,2.3,0,0,1,0,.45V41.73h0L127,57h0A2.68,2.68,0,0,1,128,59.57Z" transform="translate(0 -8.29)"/><path class="cls-3" d="M108.39,10.5,81.8,38.25,65.7,25a2.71,2.71,0,0,0-3.4,0L10,68.05h0a2.66,2.66,0,0,1-3.75-.36L.61,60.8A2.67,2.67,0,0,1,1,57L57.22,10.72a10.66,10.66,0,0,1,13.55,0L90.66,27.09V11a2.67,2.67,0,0,1,2.67-2.66h12.44A2.65,2.65,0,0,1,108.39,10.5Z" transform="translate(0 -8.29)"/><path class="cls-4" d="M76.92,43.34l29.74,24.49v48.33a3.55,3.55,0,0,1-3.55,3.55l-24.9-.06h0a3.57,3.57,0,0,1-3.54-3.57V98.59A3.56,3.56,0,0,0,71.1,95H56.89a3.56,3.56,0,0,0-3.56,3.56v17.5a3.56,3.56,0,0,1-3.54,3.56l-24.9.06a3.55,3.55,0,0,1-3.55-3.55V101.37Z" transform="translate(0 -8.29)"/><path class="cls-4" d="M128,59.57a2.26,2.26,0,0,1-.11.43,2.7,2.7,0,0,1-.45.81l-5.67,6.88-.21.23a2.67,2.67,0,0,1-3.55.13L81.8,38.25,108.39,10.5h0a2.32,2.32,0,0,1,0,.46V41.73L127,57h0A2.68,2.68,0,0,1,128,59.57Z" transform="translate(0 -8.29)"/></g></g></svg>