<?xml version="1.0" encoding="utf-8"?>
<!-- Generator: Adobe Illustrator 24.3.0, SVG Export Plug-In . SVG Version: 6.00 Build 0)  -->
<svg version="1.1" id="Layer_1" focusable="false" xmlns="http://www.w3.org/2000/svg" xmlns:xlink="http://www.w3.org/1999/xlink"
	 x="0px" y="0px" viewBox="0 0 512 512" style="enable-background:new 0 0 512 512;" xml:space="preserve">
<style type="text/css">
	.st0{fill:#2E3440;}
</style>
<path class="st0" d="M279.1,512c78.8,0,151-35.8,198.8-94.8c28.3-34.8-2.6-85.7-46.2-77.4c-82.3,15.7-158.3-47.3-158.3-130.8
	c0-48.4,26.1-92.3,67.4-115.8c38.7-22.1,29-80.8-15-88.9C310.4,1.4,294.7,0,279.1,0c-141.4,0-256,114.6-256,256
	C23.1,397.4,137.6,512,279.1,512z M279.1,48c13,0,25.7,1.2,38,3.5c-54.8,31.2-91.7,90-91.7,157.6c0,113.8,103.6,199.2,215.3,177.9
	c-38.1,47-96.3,77-161.6,77c-114.9,0-208-93.1-208-208S164.2,48,279.1,48z"/>
</svg>
