<svg id="Layer_1" data-name="Layer 1" xmlns="http://www.w3.org/2000/svg" viewBox="0 0 127.46 127.44"><defs><style>.cls-1{fill:#eceff4;}</style></defs><path class="cls-1" d="M123.27,55.52,108.39,45.44l3.41-17.68A10.06,10.06,0,0,0,100,15.94L82.38,19.35l-10-14.91c-3.76-5.55-12.92-5.55-16.68,0L45.59,19.35,28,15.94a10.1,10.1,0,0,0-11.8,11.82l3.41,17.68L4.7,55.52a10.08,10.08,0,0,0,0,16.7L19.58,82.3,16.17,100A10.08,10.08,0,0,0,28,111.77l17.62-3.41,10.06,14.9a10,10,0,0,0,16.68,0l10-14.91L100,111.79a9.94,9.94,0,0,0,9-2.76,10.11,10.11,0,0,0,2.77-9l-3.41-17.67L123.3,72.24a10.08,10.08,0,0,0,0-16.72Zm-28.1,21.3,4.38,22.7L76.91,95.14,64,114.28,51.07,95.11,28.45,99.5l4.38-22.7L13.71,63.85,32.83,50.91l-4.38-22.7,22.64,4.38L64,13.48,76.91,32.62l22.64-4.38L95.17,50.91l19.12,12.94-19.12,13ZM64,38.12A25.89,25.89,0,1,0,89.87,64,25.93,25.93,0,0,0,64,38.12Zm0,39.82A13.94,13.94,0,1,1,77.93,64,14,14,0,0,1,64,77.94Z" transform="translate(-0.27 -0.28)"/></svg>